<svg width="40" height="32" viewBox="0 0 40 32" fill="none" xmlns="http://www.w3.org/2000/svg">
<g clip-path="url(#clip0_151_352)">
<path opacity="0.15" fill-rule="evenodd" clip-rule="evenodd" d="M3 1C1.89543 1 1 1.89543 1 3V28C1 29.1046 1.89543 30 3 30H37C38.1046 30 39 29.1046 39 28V3C39 1.89543 38.1046 1 37 1H3ZM36 9H4V28H36V9Z" fill="url(#paint0_linear_151_352)"/>
<path d="M37.6172 0.375H2.38281C1.06903 0.375 0 1.44403 0 2.75781V29.2422C0 30.556 1.06903 31.625 2.38281 31.625H37.6172C38.931 31.625 40 30.556 40 29.2422V2.75781C40 1.44403 38.931 0.375 37.6172 0.375ZM38.4375 29.2422C38.4375 29.6945 38.0695 30.0625 37.6172 30.0625H2.38281C1.93054 30.0625 1.5625 29.6945 1.5625 29.2422V2.75781C1.5625 2.30554 1.93054 1.9375 2.38281 1.9375H37.6172C38.0695 1.9375 38.4375 2.30554 38.4375 2.75781V29.2422Z" fill="url(#paint1_linear_151_352)"/>
<path d="M14.9219 5.7915H35.0781C35.5096 5.7915 35.8594 5.44177 35.8594 5.01025C35.8594 4.57904 35.5096 4.229 35.0781 4.229H14.9219C14.4904 4.229 14.1406 4.57904 14.1406 5.01025C14.1406 5.44177 14.4904 5.7915 14.9219 5.7915Z" fill="url(#paint2_linear_151_352)"/>
<path d="M3.99231 5.30934C4.01184 5.35634 4.03595 5.40151 4.06403 5.44362C4.0921 5.48665 4.12506 5.52663 4.16107 5.56233C4.30634 5.70851 4.50775 5.79152 4.71313 5.79152C4.76471 5.79152 4.81567 5.78664 4.86633 5.77657C4.91638 5.7665 4.96552 5.75154 5.01251 5.73201C5.05951 5.71248 5.10468 5.68837 5.14679 5.66029C5.18982 5.6313 5.2298 5.59834 5.2655 5.56264C5.30243 5.52663 5.33447 5.48665 5.36316 5.44392C5.39154 5.40151 5.41565 5.35634 5.43518 5.30934C5.45471 5.26174 5.46967 5.2126 5.47974 5.16316C5.48981 5.1125 5.49438 5.06093 5.49438 5.01027C5.49438 4.95931 5.48981 4.90773 5.47974 4.85799C5.46967 4.80794 5.45471 4.7585 5.43518 4.71181C5.41565 4.6642 5.39154 4.61873 5.36316 4.57662C5.33447 4.53359 5.30243 4.49391 5.2655 4.4579C5.2298 4.42189 5.18982 4.38924 5.14679 4.36086C5.10468 4.33278 5.05951 4.30867 5.01251 4.28914C4.96552 4.26961 4.91638 4.25465 4.86633 4.24458C4.76563 4.22414 4.66187 4.22414 4.56085 4.24458C4.5108 4.25465 4.46167 4.26961 4.41498 4.28914C4.36707 4.30867 4.3219 4.33278 4.27979 4.36086C4.23676 4.38924 4.19678 4.42189 4.16107 4.4579C4.12506 4.49391 4.0921 4.53359 4.06403 4.57662C4.03595 4.61873 4.01184 4.6642 3.99231 4.71181C3.97278 4.7585 3.95782 4.80794 3.94775 4.85799C3.93738 4.90773 3.93188 4.95931 3.93188 5.01027C3.93188 5.06093 3.93738 5.1125 3.94775 5.16316C3.95782 5.2126 3.97278 5.26174 3.99231 5.30934Z" fill="url(#paint3_linear_151_352)"/>
<path d="M7.11731 5.30934C7.13684 5.35634 7.16095 5.40151 7.18903 5.44362C7.2171 5.48665 7.25006 5.52663 7.28607 5.56233C7.43134 5.70851 7.63275 5.79152 7.83813 5.79152C7.88971 5.79152 7.94067 5.78664 7.99133 5.77657C8.04138 5.7665 8.09053 5.75154 8.13752 5.73201C8.18452 5.71248 8.22968 5.68837 8.27179 5.66029C8.31482 5.6313 8.35481 5.59834 8.39143 5.56264C8.42744 5.52663 8.45947 5.48665 8.48816 5.44392C8.51654 5.40151 8.54065 5.35634 8.56018 5.30934C8.57971 5.26174 8.59467 5.2126 8.60474 5.16316C8.61481 5.1125 8.61938 5.06093 8.61938 5.01027C8.61938 4.95931 8.61481 4.90773 8.60474 4.85799C8.59467 4.80794 8.57971 4.7585 8.56018 4.71181C8.54065 4.6642 8.51654 4.61873 8.48816 4.57662C8.45947 4.53359 8.42744 4.49391 8.39143 4.4579C8.35481 4.42189 8.31482 4.38924 8.27179 4.36086C8.22968 4.33278 8.18452 4.30867 8.13752 4.28914C8.09053 4.26961 8.04138 4.25465 7.99133 4.24458C7.89063 4.22414 7.78687 4.22414 7.68585 4.24458C7.6358 4.25465 7.58667 4.26961 7.53998 4.28914C7.49207 4.30867 7.4469 4.33278 7.40479 4.36086C7.36176 4.38924 7.32178 4.42189 7.28607 4.4579C7.25006 4.49391 7.2171 4.53359 7.18903 4.57662C7.16095 4.61873 7.13684 4.6642 7.11731 4.71181C7.09778 4.7585 7.08282 4.80794 7.07275 4.85799C7.06238 4.90773 7.05688 4.95931 7.05688 5.01027C7.05688 5.06093 7.06238 5.1125 7.07275 5.16316C7.08282 5.2126 7.09778 5.26174 7.11731 5.30934Z" fill="url(#paint4_linear_151_352)"/>
<path d="M10.2423 5.30934C10.2618 5.35634 10.2859 5.40151 10.314 5.44362C10.3421 5.48665 10.3751 5.52663 10.4111 5.56233C10.4468 5.59834 10.4868 5.6313 10.5298 5.65999C10.5719 5.68837 10.6171 5.71248 10.665 5.73201C10.7117 5.75154 10.7608 5.7665 10.8109 5.77657C10.8609 5.78664 10.9125 5.79122 10.9631 5.79122C11.0147 5.79122 11.0657 5.78664 11.1163 5.77657C11.1664 5.7665 11.2155 5.75154 11.2625 5.73201C11.3095 5.71248 11.3547 5.68837 11.3977 5.65999C11.4398 5.6313 11.4798 5.59834 11.5164 5.56233C11.5524 5.52663 11.5845 5.48665 11.6132 5.44362C11.6415 5.40151 11.6656 5.35634 11.6852 5.30934C11.7047 5.26174 11.7197 5.2126 11.7297 5.16316C11.7398 5.1125 11.7444 5.06093 11.7444 5.00997C11.7444 4.95931 11.7398 4.90773 11.7297 4.85768C11.7197 4.80763 11.7047 4.7585 11.6852 4.71181C11.6656 4.6639 11.6415 4.61873 11.6132 4.57662C11.5845 4.53359 11.5524 4.49361 11.5164 4.4579C11.4798 4.42189 11.4398 4.38893 11.3977 4.36086C11.3547 4.33278 11.3095 4.30867 11.2625 4.28914C11.2155 4.26961 11.1664 4.25465 11.1163 4.24458C11.0156 4.22414 10.9119 4.22414 10.8109 4.24458C10.7608 4.25465 10.7117 4.26961 10.665 4.28914C10.6171 4.30867 10.5719 4.33278 10.5298 4.36086C10.4868 4.38893 10.4468 4.42189 10.4111 4.4579C10.3751 4.49361 10.3421 4.53359 10.314 4.57662C10.2859 4.61873 10.2618 4.6639 10.2423 4.71181C10.2228 4.7585 10.2078 4.80763 10.1978 4.85768C10.1874 4.90773 10.1819 4.95931 10.1819 5.00997C10.1819 5.06093 10.1874 5.1125 10.1978 5.16316C10.2078 5.2126 10.2228 5.26174 10.2423 5.30934Z" fill="url(#paint5_linear_151_352)"/>
<path d="M22.7154 13.7391C22.344 13.5193 21.8649 13.6426 21.6452 14.014L17.0099 21.8525C16.7901 22.2239 16.9131 22.703 17.2845 22.9224C17.4093 22.9963 17.5464 23.0317 17.6816 23.0317C17.9486 23.0317 18.2089 22.8943 18.3548 22.6478L22.9901 14.8093C23.2098 14.4379 23.0868 13.9588 22.7154 13.7391Z" fill="url(#paint6_linear_151_352)"/>
<path d="M12.977 16.0352V15.2463C12.977 14.8096 13.3322 14.4541 13.7689 14.4541H13.7799C14.2114 14.4541 14.5611 14.1043 14.5611 13.6728C14.5611 13.2416 14.2114 12.8916 13.7799 12.8916H13.7689C12.4707 12.8916 11.4145 13.9481 11.4145 15.2463V16.0352C11.4145 16.3193 11.2979 16.5964 11.0947 16.7951L10.0824 17.7854C9.93317 17.9313 9.84864 18.1308 9.84742 18.3396C9.8465 18.5483 9.9289 18.7488 10.0766 18.8965L11.1081 19.9277C11.3071 20.1264 11.4175 20.3907 11.4197 20.672L11.4252 21.4908C11.4343 22.7802 12.4905 23.8294 13.7799 23.8294C14.2114 23.8294 14.5611 23.4793 14.5611 23.0481C14.5611 22.6166 14.2114 22.2669 13.7799 22.2669C13.3459 22.2669 12.9907 21.9138 12.9877 21.4801L12.9822 20.6614C12.9773 19.9665 12.7038 19.3134 12.2128 18.8227L11.7398 18.35L12.1875 17.912C12.6892 17.421 12.977 16.7371 12.977 16.0352Z" fill="url(#paint7_linear_151_352)"/>
<path d="M27.0229 20.6857V21.4745C27.0229 21.9113 26.6677 22.2668 26.231 22.2668H26.22C25.7885 22.2668 25.4387 22.6165 25.4387 23.048C25.4387 23.4792 25.7885 23.8293 26.22 23.8293H26.231C27.5292 23.8293 28.5854 22.7728 28.5854 21.4745V20.6857C28.5854 20.4016 28.702 20.1245 28.9052 19.9258L29.9175 18.9355C30.0667 18.7896 30.1513 18.59 30.1522 18.3813C30.1534 18.1725 30.071 17.972 29.9233 17.8243L28.8918 16.7932C28.6928 16.5945 28.582 16.3299 28.5802 16.0488L28.5744 15.23C28.5656 13.9407 27.5094 12.8918 26.22 12.8918C25.7885 12.8918 25.4387 13.2415 25.4387 13.673C25.4387 14.1042 25.7885 14.4543 26.22 14.4543C26.6536 14.4543 27.0092 14.8071 27.0119 15.2407L27.0177 16.0595C27.0226 16.7541 27.2957 17.4072 27.7871 17.8982L28.2601 18.3709L27.8124 18.8088C27.3107 19.2996 27.0229 19.9838 27.0229 20.6857Z" fill="url(#paint8_linear_151_352)"/>
<path d="M36.0444 8.13525H3.95581C3.52429 8.13525 3.17456 8.48529 3.17456 8.9165V27.6665C3.17456 28.098 3.52429 28.4477 3.95581 28.4477H13.2554C13.6869 28.4477 14.0367 28.098 14.0367 27.6665C14.0367 27.2353 13.6869 26.8852 13.2554 26.8852H4.73706V9.69775H35.2632V26.8852H19.5313C19.0998 26.8852 18.7501 27.2353 18.7501 27.6665C18.7501 28.098 19.0998 28.4477 19.5313 28.4477H36.0444C36.4759 28.4477 36.8257 28.098 36.8257 27.6665V8.9165C36.8257 8.48529 36.4759 8.13525 36.0444 8.13525Z" fill="url(#paint9_linear_151_352)"/>
</g>
<defs>
<linearGradient id="paint0_linear_151_352" x1="3.15333" y1="1" x2="26.6886" y2="35.0542" gradientUnits="userSpaceOnUse">
<stop offset="0.259336" stop-color="#E14D9B"/>
<stop offset="1" stop-color="#E31883"/>
</linearGradient>
<linearGradient id="paint1_linear_151_352" x1="2.26667" y1="0.375" x2="27.8327" y2="36.511" gradientUnits="userSpaceOnUse">
<stop offset="0.259336" stop-color="#E14D9B"/>
<stop offset="1" stop-color="#E31883"/>
</linearGradient>
<linearGradient id="paint2_linear_151_352" x1="15.3714" y1="4.229" x2="15.5472" y2="6.92874" gradientUnits="userSpaceOnUse">
<stop offset="0.259336" stop-color="#E14D9B"/>
<stop offset="1" stop-color="#E31883"/>
</linearGradient>
<linearGradient id="paint3_linear_151_352" x1="4.02043" y1="4.22925" x2="5.36918" y2="5.71881" gradientUnits="userSpaceOnUse">
<stop offset="0.259336" stop-color="#E14D9B"/>
<stop offset="1" stop-color="#E31883"/>
</linearGradient>
<linearGradient id="paint4_linear_151_352" x1="7.14543" y1="4.22925" x2="8.49418" y2="5.71881" gradientUnits="userSpaceOnUse">
<stop offset="0.259336" stop-color="#E14D9B"/>
<stop offset="1" stop-color="#E31883"/>
</linearGradient>
<linearGradient id="paint5_linear_151_352" x1="10.2704" y1="4.22925" x2="11.6189" y2="5.71878" gradientUnits="userSpaceOnUse">
<stop offset="0.259336" stop-color="#E14D9B"/>
<stop offset="1" stop-color="#E31883"/>
</linearGradient>
<linearGradient id="paint6_linear_151_352" x1="17.2521" y1="13.6302" x2="25.0143" y2="19.2811" gradientUnits="userSpaceOnUse">
<stop offset="0.259336" stop-color="#E14D9B"/>
<stop offset="1" stop-color="#E31883"/>
</linearGradient>
<linearGradient id="paint7_linear_151_352" x1="10.1145" y1="12.8916" x2="17.4786" y2="16.396" gradientUnits="userSpaceOnUse">
<stop offset="0.259336" stop-color="#E14D9B"/>
<stop offset="1" stop-color="#E31883"/>
</linearGradient>
<linearGradient id="paint8_linear_151_352" x1="25.7058" y1="12.8918" x2="33.0695" y2="16.3959" gradientUnits="userSpaceOnUse">
<stop offset="0.259336" stop-color="#E14D9B"/>
<stop offset="1" stop-color="#E31883"/>
</linearGradient>
<linearGradient id="paint9_linear_151_352" x1="5.08145" y1="8.13526" x2="19.9153" y2="35.272" gradientUnits="userSpaceOnUse">
<stop offset="0.259336" stop-color="#E14D9B"/>
<stop offset="1" stop-color="#E31883"/>
</linearGradient>
<clipPath id="clip0_151_352">
<rect width="40" height="32" fill="white"/>
</clipPath>
</defs>
</svg>
